<?xml version="1.0" encoding="UTF-8"?> <svg xmlns="http://www.w3.org/2000/svg" xmlns:xlink="http://www.w3.org/1999/xlink" width="800px" height="1327px" viewBox="0 0 800 1327" style="background: #FFFFFF;"> <!-- Generator: Sketch 46 (44423) - http://www.bohemiancoding.com/sketch --> <title>Chart_2@1x</title> <desc>Created with Sketch.</desc> <defs></defs> <g id="Page-1" stroke="none" stroke-width="1" fill="none" fill-rule="evenodd"> <g id="Chart_2"> <g id="Group-6" transform="translate(86.000000, 93.000000)"> <rect id="Rectangle-2" fill="#459DD3" x="413" y="152" width="7" height="30" rx="3.5"></rect> <rect id="Rectangle-2-Copy" fill="#45D3AC" x="1" y="4" width="7" height="50" rx="3.5"></rect> <path d="M8,19.5 L109.5,19.5 C115.022847,19.5 119.5,23.9771525 119.5,29.5 C119.5,35.0228475 115.022847,39.5 109.5,39.5 L14,39.5" id="Rectangle" stroke="#979797"></path> <text id="read-(hit)" font-family="Roboto-Regular, Roboto" font-size="13" font-weight="normal" fill="#4A4A4A"> <tspan x="37.5944824" y="12">read (hit)</tspan> </text> <polygon id="Triangle" fill="#979797" transform="translate(12.500000, 39.500000) rotate(-90.000000) translate(-12.500000, -39.500000) " points="12.5 37 16.5 42 8.5 42"></polygon> <rect id="Rectangle-2-Copy-8" fill="#45D3AC" x="1" y="417" width="7" height="62" rx="3.5"></rect> <rect id="Rectangle-2-Copy-3" fill="#45D3AC" x="0" y="122" width="7" height="30" rx="3.5"></rect> <rect id="Rectangle-2-Copy-7" fill="#45D3AC" x="0" y="272" width="7" height="30" rx="3.5"></rect> <rect id="Rectangle-2-Copy-9" fill="#D8D8D8" x="208" y="181" width="7" height="60" rx="3.5"></rect> <rect id="Rectangle-2-Copy-6" fill="#459DD3" x="413" y="241" width="7" height="30" rx="3.5"></rect> <g id="right" transform="translate(418.000000, 488.000000)"> <polygon id="Rectangle" fill="#979797" fill-rule="evenodd" points="0 21 203 21 203 22 0 22"></polygon> <polygon id="Triangle" fill="#979797" fill-rule="evenodd" points="204 21.5 198 26 198 17"></polygon> <rect id="Rectangle-2" fill="#FFFFFF" fill-rule="evenodd" x="42" y="2" width="119" height="15"></rect> <text id="Type-something" font-family="Roboto-Regular, Roboto" font-size="13" font-weight="normal" fill="#4A4A4A"> <tspan x="47.4299316" y="12">write (background)</tspan> </text> </g> <rect id="Rectangle-2-Copy-5" fill="#111111" x="620" y="182" width="7" height="60" rx="3.5"></rect> </g> <g id="Group-4" transform="translate(33.000000, 39.000000)"> <g id="ttl-copy-3"> <rect id="Rectangle-Copy" fill="#45D3AC" x="0" y="0" width="120" height="27" rx="13.5"></rect> <text id="App" font-family="Roboto-Medium, Roboto" font-size="15" font-weight="400" fill="#FFFFFF"> <tspan x="47.239502" y="18">App</tspan> </text> </g> <path d="M58.5,28.6036399 L58.5,1213.61365" id="Line" stroke="#45D3AC" stroke-linecap="square" stroke-dasharray="2,4"></path> </g> <g id="Group-3" transform="translate(240.000000, 38.000000)"> <g id="ttl"> <rect id="Rectangle-Copy" fill="#D8D8D8" x="0" y="0" width="120" height="27" rx="13.5"></rect> <text id="Other-Thread-Copy" font-family="Roboto-Medium, Roboto" font-size="15" font-weight="400" fill="#4A4A4A"> <tspan x="16.7561035" y="18">Other Thread</tspan> </text> </g> <path d="M58.5,28.5 L58.5,1213.51001" id="Line-Copy" stroke="#D2D1E0" stroke-linecap="square" stroke-dasharray="2,4"></path> </g> <g id="Group-2" transform="translate(445.000000, 38.000000)"> <g id="ttl-copy-4"> <rect id="Rectangle-Copy" fill="#459DD3" x="0" y="0" width="120" height="27" rx="13.5"></rect> <text id="Kernel" font-family="Roboto-Medium, Roboto" font-size="15" font-weight="400" fill="#FFFFFF"> <tspan x="39.0949707" y="18">Kernel</tspan> </text> </g> <path d="M57.5,28.5 L57.5,1213.51001" id="Line-Copy-2" stroke="#459DD3" stroke-linecap="square" stroke-dasharray="2,4"></path> </g> <g id="Group" transform="translate(651.000000, 38.000000)"> <g id="ttl-copy-2"> <rect id="Rectangle-Copy" fill="#111111" x="0" y="0" width="120" height="27" rx="13.5"></rect> <text id="Disk" font-family="Roboto-Medium, Roboto" font-size="15" font-weight="400" fill="#FFFFFF"> <tspan x="45.8991699" y="18">Disk</tspan> </text> </g> <path d="M58.5,28.5 L58.5,1213.51001" id="Line-Copy-3" stroke="#111111" stroke-linecap="square" stroke-dasharray="2,4"></path> </g> <g id="Group-5" transform="translate(89.000000, 223.000000)"> <g id="right"> <polygon id="Rectangle" fill="#979797" fill-rule="evenodd" points="0 21 406 21 406 22 0 22"></polygon> <polygon id="Triangle" fill="#979797" fill-rule="evenodd" points="411 21.5 405 26 405 17"></polygon> <rect id="Rectangle-2" fill="#FFFFFF" fill-rule="evenodd" x="143.5" y="2" width="119" height="15"></rect> <text id="Type-something" font-family="Roboto-Regular, Roboto" font-size="13" font-weight="normal" fill="#4A4A4A"> <tspan x="170.927002" y="12">read (miss)</tspan> </text> </g> <g id="left" transform="translate(0.000000, 120.000000)"> <polygon id="Triangle-Copy" fill="#FFFFFF" fill-rule="evenodd" transform="translate(4.000000, 20.000000) scale(-1, 1) translate(-4.000000, -20.000000) " points="7 20 1 26 1 14"></polygon> <rect id="Rectangle" fill="#979797" fill-rule="evenodd" x="6" y="21" width="408" height="1"></rect> <polygon id="Triangle" fill="#979797" fill-rule="evenodd" transform="translate(5.000000, 21.500000) scale(-1, 1) translate(-5.000000, -21.500000) " points="8 21.5 2 26 2 17"></polygon> <rect id="Rectangle-2" fill="#FFFFFF" fill-rule="evenodd" x="147.5" y="2" width="119" height="15"></rect> <text id="Type-something" font-family="Roboto-Regular, Roboto" font-size="13" font-weight="normal"></text> </g> <g id="left" transform="translate(207.000000, 30.000000)"> <polygon id="Triangle-Copy" fill="#FFFFFF" fill-rule="evenodd" transform="translate(4.000000, 20.000000) scale(-1, 1) translate(-4.000000, -20.000000) " points="7 20 1 26 1 14"></polygon> <rect id="Rectangle" fill="#979797" fill-rule="evenodd" x="3" y="21" width="204" height="1"></rect> <polygon id="Triangle" fill="#979797" fill-rule="evenodd" transform="translate(5.000000, 21.500000) scale(-1, 1) translate(-5.000000, -21.500000) " points="8 21.5 2 26 2 17"></polygon> <rect id="Rectangle-2" fill="#FFFFFF" fill-rule="evenodd" x="44" y="2" width="119" height="15"></rect> <text id="Type-something" font-family="Roboto-Regular, Roboto" font-size="13" font-weight="normal" fill="#4A4A4A"> <tspan x="59.7539062" y="12">context switch</tspan> </text> </g> <g id="right" transform="translate(207.000000, 90.000000)"> <polygon id="Rectangle" fill="#979797" fill-rule="evenodd" points="0 21 203 21 203 22 0 22"></polygon> <polygon id="Triangle" fill="#979797" fill-rule="evenodd" points="204 21.5 198 26 198 17"></polygon> <rect id="Rectangle-2" fill="#FFFFFF" fill-rule="evenodd" x="42" y="2" width="119" height="15"></rect> <text id="Type-something" font-family="Roboto-Regular, Roboto" font-size="13" font-weight="normal" fill="#4A4A4A"> <tspan x="59.7539062" y="12">context switch</tspan> </text> </g> <g id="right" transform="translate(414.000000, 30.000000)"> <polygon id="Rectangle" fill="#979797" fill-rule="evenodd" points="0 21 203 21 203 22 0 22"></polygon> <polygon id="Triangle" fill="#979797" fill-rule="evenodd" points="204 21.5 198 26 198 17"></polygon> <rect id="Rectangle-2" fill="#FFFFFF" fill-rule="evenodd" x="42" y="2" width="119" height="15"></rect> <text id="Type-something" font-family="Roboto-Regular, Roboto" font-size="13" font-weight="normal" fill="#4A4A4A"> <tspan x="89.1054688" y="12">read</tspan> </text> </g> <g id="left" transform="translate(414.000000, 90.000000)"> <polygon id="Triangle-Copy" fill="#FFFFFF" fill-rule="evenodd" transform="translate(4.000000, 20.000000) scale(-1, 1) translate(-4.000000, -20.000000) " points="7 20 1 26 1 14"></polygon> <rect id="Rectangle" fill="#979797" fill-rule="evenodd" x="3" y="21" width="204" height="1"></rect> <polygon id="Triangle" fill="#979797" fill-rule="evenodd" transform="translate(5.000000, 21.500000) scale(-1, 1) translate(-5.000000, -21.500000) " points="8 21.5 2 26 2 17"></polygon> <rect id="Rectangle-2" fill="#FFFFFF" fill-rule="evenodd" x="44" y="2" width="119" height="15"></rect> <text id="Type-something" font-family="Roboto-Regular, Roboto" font-size="13" font-weight="normal" fill="#4A4A4A"> <tspan x="77.4067383" y="12">interrupt</tspan> </text> </g> </g> <path d="M94,532 L195.955157,532 C201.502771,532 206,536.477153 206,542 C206,547.522847 201.502771,552 195.955157,552 L100.026906,552" id="Rectangle" stroke="#979797"></path> <polygon id="Triangle" fill="#979797" transform="translate(99.000000, 551.500000) rotate(-90.000000) translate(-99.000000, -551.500000) " points="99 549 103 554 95 554"></polygon> <text id="write-(hit)" font-family="Roboto-Regular, Roboto" font-size="13" font-weight="normal" fill="#4A4A4A"> <tspan x="122.400391" y="524">write (hit)</tspan> </text> <path d="M35.5,181 L760.699283,181" id="Line-2" stroke="#E4E4E4" stroke-width="4" stroke-linecap="square"></path> <path d="M35.5,469 L760.699283,469" id="Line-2-Copy" stroke="#E4E4E4" stroke-width="4" stroke-linecap="square"></path> <path d="M35.5,696 L760.699283,696" id="Line-2-Copy-2" stroke="#E4E4E4" stroke-width="4" stroke-linecap="square"></path> <path d="M35.5,985 L760.699283,985" id="Line-2-Copy-3" stroke="#E4E4E4" stroke-width="4" stroke-linecap="square"></path> <path d="M35.5,856 L760.699283,856" id="Line-2-Copy-4" stroke="#E4E4E4" stroke-width="4" stroke-linecap="square"></path> <g id="Group-7" transform="translate(87.000000, 730.000000)"> <rect id="Rectangle-2-Copy-3" fill="#45D3AC" x="0" y="0" width="7" height="30" rx="3.5"></rect> <rect id="Rectangle-2-Copy-4" fill="#45D3AC" x="0" y="62" width="7" height="30" rx="3.5"></rect> <g id="right" transform="translate(417.000000, 170.000000)"> <polygon id="Rectangle" fill="#979797" fill-rule="evenodd" points="0 21 203 21 203 22 0 22"></polygon> <polygon id="Triangle" fill="#979797" fill-rule="evenodd" points="204 21.5 198 26 198 17"></polygon> <rect id="Rectangle-2" fill="#FFFFFF" fill-rule="evenodd" x="42" y="2" width="119" height="15"></rect> <text id="Type-something" font-family="Roboto-Regular, Roboto" font-size="13" font-weight="normal" fill="#4A4A4A"> <tspan x="73.7822266" y="12">writeback</tspan> </text> </g> <rect id="Rectangle-2-Copy-11" fill="#111111" x="620" y="192" width="7" height="30" rx="3.5"></rect> <g id="right" transform="translate(3.000000, 8.000000)"> <polygon id="Rectangle" fill="#979797" fill-rule="evenodd" points="0 21 406 21 406 22 0 22"></polygon> <polygon id="Triangle" fill="#979797" fill-rule="evenodd" points="411 21.5 405 26 405 17"></polygon> <rect id="Rectangle-2" fill="#FFFFFF" fill-rule="evenodd" x="143.5" y="2" width="119" height="15"></rect> <text id="Type-something" font-family="Roboto-Regular, Roboto" font-size="13" font-weight="normal" fill="#4A4A4A"> <tspan x="161.935547" y="12">write (append)</tspan> </text> </g> <g id="left" transform="translate(3.000000, 40.000000)"> <polygon id="Triangle-Copy" fill="#FFFFFF" fill-rule="evenodd" transform="translate(4.000000, 20.000000) scale(-1, 1) translate(-4.000000, -20.000000) " points="7 20 1 26 1 14"></polygon> <rect id="Rectangle" fill="#979797" fill-rule="evenodd" x="6" y="21" width="408" height="1"></rect> <polygon id="Triangle" fill="#979797" fill-rule="evenodd" transform="translate(5.000000, 21.500000) scale(-1, 1) translate(-5.000000, -21.500000) " points="8 21.5 2 26 2 17"></polygon> <rect id="Rectangle-2" fill="#FFFFFF" fill-rule="evenodd" x="147.5" y="2" width="119" height="15"></rect> <text id="Type-something" font-family="Roboto-Regular, Roboto" font-size="13" font-weight="normal"></text> </g> <rect id="Rectangle-2-Copy-10" fill="#459DD3" x="413" y="30" width="7" height="30" rx="3.5"></rect> <rect id="Rectangle-2-Copy-12" fill="#459DD3" x="413" y="161" width="7" height="30" rx="3.5"></rect> </g> <g id="Group-7-Copy" transform="translate(87.000000, 1027.000000)"> <rect id="Rectangle-2-Copy-3" fill="#45D3AC" x="0" y="0" width="7" height="30" rx="3.5"></rect> <rect id="Rectangle-2-Copy-14" fill="#45D3AC" x="0" y="125" width="7" height="30" rx="3.5"></rect> <rect id="Rectangle-2-Copy-4" fill="#D8D8D8" x="207" y="62" width="7" height="30" rx="3.5"></rect> <g id="right" transform="translate(417.000000, 40.000000)"> <polygon id="Rectangle" fill="#979797" fill-rule="evenodd" points="0 21 203 21 203 22 0 22"></polygon> <polygon id="Triangle" fill="#979797" fill-rule="evenodd" points="204 21.5 198 26 198 17"></polygon> <rect id="Rectangle-2" fill="#FFFFFF" fill-rule="evenodd" x="42" y="2" width="119" height="15"></rect> <text id="Type-something" font-family="Roboto-Regular, Roboto" font-size="13" font-weight="normal" fill="#4A4A4A"> <tspan x="73.7822266" y="12">writeback</tspan> </text> </g> <g id="left" transform="translate(417.000000, 71.000000)"> <polygon id="Triangle-Copy" fill="#FFFFFF" fill-rule="evenodd" transform="translate(4.000000, 20.000000) scale(-1, 1) translate(-4.000000, -20.000000) " points="7 20 1 26 1 14"></polygon> <rect id="Rectangle" fill="#979797" fill-rule="evenodd" x="3" y="21" width="204" height="1"></rect> <polygon id="Triangle" fill="#979797" fill-rule="evenodd" transform="translate(5.000000, 21.500000) scale(-1, 1) translate(-5.000000, -21.500000) " points="8 21.5 2 26 2 17"></polygon> <rect id="Rectangle-2" fill="#FFFFFF" fill-rule="evenodd" x="44" y="2" width="119" height="15"></rect> <text id="Type-something" font-family="Roboto-Regular, Roboto" font-size="13" font-weight="normal" fill="#4A4A4A"> <tspan x="77.4067383" y="12">interrupt</tspan> </text> </g> <g id="right" transform="translate(417.000000, 193.000000)"> <polygon id="Rectangle" fill="#979797" fill-rule="evenodd" points="0 21 203 21 203 22 0 22"></polygon> <polygon id="Triangle" fill="#979797" fill-rule="evenodd" points="204 21.5 198 26 198 17"></polygon> <rect id="Rectangle-2" fill="#FFFFFF" fill-rule="evenodd" x="42" y="2" width="119" height="15"></rect> <text id="Type-something" font-family="Roboto-Regular, Roboto" font-size="13" font-weight="normal" fill="#4A4A4A"> <tspan x="73.7822266" y="12">writeback</tspan> </text> </g> <rect id="Rectangle-2-Copy-11" fill="#111111" x="620" y="215" width="7" height="30" rx="3.5"></rect> <rect id="Rectangle-2-Copy-12" fill="#459DD3" x="413" y="184" width="7" height="30" rx="3.5"></rect> <rect id="Rectangle-2-Copy-11" fill="#111111" x="620" y="62" width="7" height="30" rx="3.5"></rect> <g id="right" transform="translate(3.000000, 8.000000)"> <polygon id="Rectangle" fill="#979797" fill-rule="evenodd" points="0 21 406 21 406 22 0 22"></polygon> <polygon id="Triangle" fill="#979797" fill-rule="evenodd" points="411 21.5 405 26 405 17"></polygon> <rect id="Rectangle-2" fill="#FFFFFF" fill-rule="evenodd" x="143.5" y="2" width="119" height="15"></rect> <text id="Type-something" font-family="Roboto-Regular, Roboto" font-size="13" font-weight="normal" fill="#4A4A4A"> <tspan x="148.97998" y="12">write (memory full)</tspan> </text> </g> <g id="left" transform="translate(210.000000, 40.000000)"> <polygon id="Triangle-Copy" fill="#FFFFFF" fill-rule="evenodd" transform="translate(4.000000, 20.000000) scale(-1, 1) translate(-4.000000, -20.000000) " points="7 20 1 26 1 14"></polygon> <rect id="Rectangle" fill="#979797" fill-rule="evenodd" x="3" y="21" width="204" height="1"></rect> <polygon id="Triangle" fill="#979797" fill-rule="evenodd" transform="translate(5.000000, 21.500000) scale(-1, 1) translate(-5.000000, -21.500000) " points="8 21.5 2 26 2 17"></polygon> <rect id="Rectangle-2" fill="#FFFFFF" fill-rule="evenodd" x="44" y="2" width="119" height="15"></rect> <text id="Type-something" font-family="Roboto-Regular, Roboto" font-size="13" font-weight="normal" fill="#4A4A4A"> <tspan x="58.1447754" y="12"> context switch</tspan> </text> </g> <g id="left" transform="translate(3.000000, 102.000000)"> <polygon id="Triangle-Copy" fill="#FFFFFF" fill-rule="evenodd" transform="translate(4.000000, 20.000000) scale(-1, 1) translate(-4.000000, -20.000000) " points="7 20 1 26 1 14"></polygon> <rect id="Rectangle" fill="#979797" fill-rule="evenodd" x="6" y="21" width="408" height="1"></rect> <polygon id="Triangle" fill="#979797" fill-rule="evenodd" transform="translate(5.000000, 21.500000) scale(-1, 1) translate(-5.000000, -21.500000) " points="8 21.5 2 26 2 17"></polygon> <rect id="Rectangle-2" fill="#FFFFFF" fill-rule="evenodd" x="147.5" y="2" width="119" height="15"></rect> <text id="Type-something" font-family="Roboto-Regular, Roboto" font-size="13" font-weight="normal"></text> </g> <g id="right" transform="translate(210.000000, 71.000000)"> <polygon id="Rectangle" fill="#979797" fill-rule="evenodd" points="0 21 203 21 203 22 0 22"></polygon> <polygon id="Triangle" fill="#979797" fill-rule="evenodd" points="204 21.5 198 26 198 17"></polygon> <rect id="Rectangle-2" fill="#FFFFFF" fill-rule="evenodd" x="42" y="2" width="119" height="15"></rect> <text id="Type-something" font-family="Roboto-Regular, Roboto" font-size="13" font-weight="normal" fill="#4A4A4A"> <tspan x="58.1447754" y="12"> context switch</tspan> </text> </g> <rect id="Rectangle-2-Copy-10" fill="#459DD3" x="413" y="30" width="7" height="30" rx="3.5"></rect> <rect id="Rectangle-2-Copy-13" fill="#459DD3" x="413" y="93" width="7" height="30" rx="3.5"></rect> </g> <text id="zero-memory" font-family="Roboto-Regular, Roboto" font-size="13" font-weight="normal" fill="#4A4A4A"> <tspan x="524.056885" y="778">zero memory</tspan> </text> <rect id="Rectangle-2-Copy-11" fill="#111111" x="707" y="602" width="7" height="60" rx="3.5"></rect> </g> </g> </svg> 